<svg class="border shadow-md" viewBox="0 0 654.72 491.04" xmlns="http://www.w3.org/2000/svg" preserveAspectRatio="none" style="width: 654.72px; height: 491.04px;"><rect class="bg" id="bg" x="0" y="0" width="654.72" height="491.04" fill="#f7f3f3"/><g transform="rotate(0 327.36 245.52)"><path d="M -427.36 -19.10 S -223.68 -43.66&#10;            0.00 -19.10 203.68 -43.66&#10;            427.36 -19.10 631.04 -43.66&#10;            854.72 -19.10 1058.40 -43.66&#10;            1282.08 -19.10 h 110 V 691.04 H -427.36 Z" fill="#1BA4FF" id="-1"/><path d="M -427.36 30.00 S -289.00 -7.00&#10;            0.00 30.00 203.68 -6.00&#10;            427.36 30.00 631.04 -7.00&#10;            854.72 30.00 1058.08 -9.00&#10;            1282.08 30.00 h 110 V 691.04 H -427.36 Z" fill="#1c97f2" id="0"/><path id="1" d="M -427.36 79.10 S -223.68 54.55&#10;            0.00 79.10 106.36 41.10&#10;            427.36 79.10 631.04 42.10&#10;            854.72 79.10 1046.08 49.10&#10;            1282.08 79.10 h 110 V 691.04 H -427.36 Z" fill="#1d8ae5"/><path id="2" d="M -427.36 128.21 S -415.00 103.66&#10;            0.00 128.21 203.68 103.66&#10;            427.36 128.21 631.04 103.66&#10;            854.72 128.21 976.08 103.66&#10;            1282.08 128.21 h 110 V 691.04 H -427.36 Z" fill="#1e7dd8"/><path id="3" d="M -427.36 177.31 S -375.00 147.31&#10;            0.00 177.31 203.68 152.76&#10;            427.36 177.31 491.72 152.76&#10;            854.72 177.31 1058.40 137.31&#10;            1282.08 177.31 h 110 V 691.04 H -427.36 Z" fill="#1f70cb"/><path id="4" d="M -427.36 226.42 S -255.00 200.42&#10;            0.00 226.42 166.36 193.42&#10;            427.36 226.42 465.72 201.86&#10;            854.72 226.42 1058.40 200.42&#10;            1282.08 226.42 h 110 V 691.04 H -427.36 Z" fill="#2063be"/><path id="5" d="M -427.36 275.52 S -223.68 233.52&#10;            0.00 275.52 203.68 239.52&#10;            427.36 275.52 631.04 250.97&#10;            854.72 275.52 875.08 249.52&#10;            1282.08 275.52 h 110 V 691.04 H -427.36 Z" fill="#2156b1"/><path id="6" d="M -427.36 324.62 S -262.00 300.07&#10;            0.00 324.62 29.36 289.62&#10;            427.36 324.62 631.04 300.07&#10;            854.72 324.62 1058.40 292.62&#10;            1282.08 324.62 h 110 V 691.04 H -427.36 Z" fill="#2249a4"/><path id="7" d="M -427.36 373.73 S -223.68 349.18&#10;            0.00 373.73 203.68 349.18&#10;            427.36 373.73 631.04 349.18&#10;            854.72 373.73 858.08 348.73&#10;            1282.08 373.73 h 110 V 691.04 H -427.36 Z" fill="#233c97"/><path id="8" d="M -427.36 422.83 S -424.00 385.83&#10;            0.00 422.83 203.68 384.83&#10;            427.36 422.83 504.72 384.83&#10;            854.72 422.83 1058.40 374.83&#10;            1282.08 422.83 h 110 V 691.04 H -427.36 Z" fill="#242f8a"/><path id="9" d="M -427.36 471.94 S -320.00 447.38&#10;            0.00 471.94 203.68 447.38&#10;            427.36 471.94 578.72 447.38&#10;            854.72 471.94 1053.08 447.38&#10;            1282.08 471.94 h 110 V 691.04 H -427.36 Z" fill="#25227d"/></g></svg>